<svg id="Layer_1" data-name="Layer 1" xmlns="http://www.w3.org/2000/svg" viewBox="0 0 512 512"><defs><style>.cls-1{fill:#e4e6ea;}.cls-2{fill:#757889;}.cls-3{fill:#2b374f;}</style></defs><title>spider-web-filled</title><path class="cls-1" d="M473.6,256c-56.77,44.41-74.77,84.62-63.73,153.87-69.24-11-109.45,7-153.87,63.73-44.41-56.77-84.62-74.77-153.87-63.73,11-69.24-7-109.45-63.73-153.87,56.76-44.41,74.77-84.62,63.73-153.87,69.24,11,109.45-7,153.87-63.73,44.41,56.77,84.62,74.77,153.87,63.73C398.83,171.38,416.84,211.59,473.6,256Z"/><path class="cls-2" d="M313.6,256a57.7,57.7,0,0,0-9.84.9,35.18,35.18,0,1,0-46.86,46.86A57.57,57.57,0,1,0,313.6,256Z"/><path class="cls-3" d="M499.2,243.2H478.06c-50.29-40.35-64.83-75.28-56.17-135L437,93.08A12.8,12.8,0,0,0,418.92,75L403.79,90.11c-59.72,8.66-94.65-5.88-135-56.17V12.8a12.8,12.8,0,1,0-25.6,0V33.94c-40.35,50.29-75.3,64.82-135,56.17L93.08,75A12.8,12.8,0,0,0,75,93.08l15.13,15.13c8.66,59.71-5.87,94.64-56.17,135H12.8a12.8,12.8,0,1,0,0,25.6H33.94c50.29,40.35,64.83,75.28,56.17,135L75,418.92A12.8,12.8,0,1,0,93.08,437l15.13-15.13c59.72-8.66,94.65,5.88,135,56.17V499.2a12.8,12.8,0,0,0,25.6,0V478.06c40.35-50.29,75.3-64.83,135-56.17L418.92,437a12.8,12.8,0,0,0,18.1-18.1l-15.13-15.13c-8.66-59.71,5.87-94.64,56.17-135H499.2a12.8,12.8,0,0,0,0-25.6ZM268.8,72.44c31.86,32,64.52,46,107.08,45.57L330.94,163c-27.32,3.57-43.34-3.13-62.14-26Zm-44.75,197.4-35.51,35.51a75.64,75.64,0,0,0-15.7-36.56h51.28C224.1,269.15,224.07,269.5,224.05,269.85ZM243.2,225.1l-36.57-36.57a75.69,75.69,0,0,0,36.57-15.7Zm-18.1,18.1H172.83a75.64,75.64,0,0,0,15.7-36.56Zm43.7,70.4a45.18,45.18,0,0,1,.71-7.67l1.64-9.55-8.75-4.17A22.38,22.38,0,0,1,272,249.6a22.51,22.51,0,0,1,20.21,12.81l4.17,8.76,9.56-1.65A44.77,44.77,0,1,1,268.8,313.6Zm41.54-70.4a48.38,48.38,0,0,0-12.12-11.32l25.24-25.24a75.64,75.64,0,0,0,15.7,36.56Zm-5-54.67-35.52,35.52-1,.06V172.83A75.75,75.75,0,0,0,305.37,188.53ZM243.2,72.44V137c-18.81,22.86-34.8,29.55-62.14,26L136.11,118C178.64,118.41,211.33,104.47,243.2,72.44ZM118,136.11,163,181.06c3.56,27.34-3.13,43.34-26,62.14H72.44C104.47,211.33,118.42,178.67,118,136.11ZM72.44,268.8H137c22.86,18.81,29.55,34.8,26,62.14L118,375.89C118.42,333.33,104.47,300.67,72.44,268.8ZM243.2,439.55C211.78,408,179.6,394,137.9,394l-1.79,0L181.05,349c27.33-3.56,43.34,3.13,62.15,26ZM206.64,323.46l25.23-25.23a48.35,48.35,0,0,0,11.32,12.11v28.83A75.63,75.63,0,0,0,206.64,323.46Zm62.16,116.1V375c1.25-1.52,2.48-3,3.71-4.32a70.18,70.18,0,0,0,81,.87L375.89,394C333.35,393.59,300.67,407.53,268.8,439.56ZM394,375.89l-22.41-22.41a70.18,70.18,0,0,0-.87-81c1.37-1.23,2.81-2.46,4.32-3.71h64.53C407.53,300.67,393.58,333.33,394,375.89ZM375,243.2c-22.86-18.81-29.55-34.8-26-62.14L394,136.11c-.4,42.56,13.54,75.22,45.57,107.09Z"/></svg>