<svg id="Layer_1" data-name="Layer 1" xmlns="http://www.w3.org/2000/svg" viewBox="0 0 512 512"><defs><style>.cls-1{fill:#e4e6ea}.cls-2{fill:#757889}.cls-3{fill:#2b374f}</style></defs><title>spider-web-filled</title><path class="cls-1" d="M473.6 256c-56.77 44.41-74.77 84.62-63.73 153.87-69.24-11-109.45 7-153.87 63.73-44.41-56.77-84.62-74.77-153.87-63.73 11-69.24-7-109.45-63.73-153.87 56.76-44.41 74.77-84.62 63.73-153.87 69.24 11 109.45-7 153.87-63.73 44.41 56.77 84.62 74.77 153.87 63.73-11.04 69.25 6.97 109.46 63.73 153.87z"/><path class="cls-2" d="M313.6 256a57.7 57.7 0 0 0-9.84.9 35.18 35.18 0 1 0-46.86 46.86A57.57 57.57 0 1 0 313.6 256z"/><path class="cls-3" d="M499.2 243.2h-21.14c-50.29-40.35-64.83-75.28-56.17-135L437 93.08A12.8 12.8 0 0 0 418.92 75l-15.13 15.11c-59.72 8.66-94.65-5.88-135-56.17V12.8a12.8 12.8 0 1 0-25.6 0v21.14c-40.35 50.29-75.3 64.82-135 56.17L93.08 75A12.8 12.8 0 0 0 75 93.08l15.13 15.13c8.66 59.71-5.87 94.64-56.17 135H12.8a12.8 12.8 0 1 0 0 25.6h21.14c50.29 40.35 64.83 75.28 56.17 135L75 418.92A12.8 12.8 0 1 0 93.08 437l15.13-15.13c59.72-8.66 94.65 5.88 135 56.17v21.16a12.8 12.8 0 0 0 25.6 0v-21.14c40.35-50.29 75.3-64.83 135-56.17L418.92 437a12.8 12.8 0 0 0 18.1-18.1l-15.13-15.13c-8.66-59.71 5.87-94.64 56.17-135h21.14a12.8 12.8 0 0 0 0-25.6zM268.8 72.44c31.86 32 64.52 46 107.08 45.57L330.94 163c-27.32 3.57-43.34-3.13-62.14-26zm-44.75 197.4l-35.51 35.51a75.64 75.64 0 0 0-15.7-36.56h51.28c-.02.36-.05.71-.07 1.06zm19.15-44.74l-36.57-36.57a75.69 75.69 0 0 0 36.57-15.7zm-18.1 18.1h-52.27a75.64 75.64 0 0 0 15.7-36.56zm43.7 70.4a45.18 45.18 0 0 1 .71-7.67l1.64-9.55-8.75-4.17a22.38 22.38 0 0 1 9.6-42.61 22.51 22.51 0 0 1 20.21 12.81l4.17 8.76 9.56-1.65a44.77 44.77 0 1 1-37.14 44.08zm41.54-70.4a48.38 48.38 0 0 0-12.12-11.32l25.24-25.24a75.64 75.64 0 0 0 15.7 36.56zm-5-54.67l-35.52 35.52-1 .06v-51.28a75.75 75.75 0 0 0 36.55 15.7zM243.2 72.44V137c-18.81 22.86-34.8 29.55-62.14 26l-44.95-45c42.53.41 75.22-13.53 107.09-45.56zM118 136.11l45 44.95c3.56 27.34-3.13 43.34-26 62.14H72.44c32.03-31.87 45.98-64.53 45.56-107.09zM72.44 268.8H137c22.86 18.81 29.55 34.8 26 62.14l-45 44.95c.42-42.56-13.53-75.22-45.56-107.09zM243.2 439.55C211.78 408 179.6 394 137.9 394h-1.79l44.94-45c27.33-3.56 43.34 3.13 62.15 26zm-36.56-116.09l25.23-25.23a48.35 48.35 0 0 0 11.32 12.11v28.83a75.63 75.63 0 0 0-36.55-15.71zm62.16 116.1V375c1.25-1.52 2.48-3 3.71-4.32a70.18 70.18 0 0 0 81 .87L375.89 394c-42.54-.41-75.22 13.53-107.09 45.56zM394 375.89l-22.41-22.41a70.18 70.18 0 0 0-.87-81c1.37-1.23 2.81-2.46 4.32-3.71h64.53c-32.04 31.9-45.99 64.56-45.57 107.12zM375 243.2c-22.86-18.81-29.55-34.8-26-62.14l45-44.95c-.4 42.56 13.54 75.22 45.57 107.09z"/></svg>